<?xml version="1.0" encoding="UTF-8"?>
<svg width="88px" height="78px" viewBox="0 0 88 78" version="1.1" xmlns="http://www.w3.org/2000/svg" xmlns:xlink="http://www.w3.org/1999/xlink">
    <title>drive</title>
    <g id="main" stroke="none" stroke-width="1" fill="none" fill-rule="evenodd">
        <path d="M87.3,53 C87.3,54.55 86.9,56.1 86.1,57.5 L78.45,70.75 L76.85,73.5 C76.05,74.9 74.9,76 73.55,76.8 C72.2,77.55 70.65,78 69.05,78 L18.831,78 L33.274,53 L87.3,53 Z M27.5,53 L13.709,76.775 L13.4420801,76.6100592 C12.2251479,75.8289941 11.1884615,74.7923077 10.45,73.5 L6.6,66.85 L1.2,57.5 C0.4,56.1 0,54.55 0,53 L27.5,53 Z M1.2,48.5 L26.315,4.991 L40.764,30.001 L27.5,53 L-9.09494702e-13,53 C0.00104556293,51.4210609 0.414712999,49.869808 1.2,48.5 Z M52.9,0 C54.5,0 56.05,0.4 57.4,1.2 C58.75,2 59.9,3.1 60.7,4.5 L73.4,26.5 L85.762,48 L56.916,48 L43.65,25 L29.961,1.166 L30.1922923,1.04393222 C31.4716837,0.388010204 32.9142857,0 34.4,0 L52.9,0 Z" id="drive" fill="#FFFFFF" fill-rule="nonzero"></path>
    </g>
</svg>